<svg width="16" height="16" viewBox="0 0 16 16" fill="none" xmlns="http://www.w3.org/2000/svg">
<path d="M3.51965 13.7094C4.80536 14.7059 6.38565 15.2472 8.01236 15.2482C9.86414 15.2482 11.5517 14.56 12.8396 13.4322C12.8561 13.418 12.8492 13.4107 12.8322 13.418C12.2541 13.8052 10.6074 14.6486 8.01236 14.6486C5.75912 14.6486 4.3345 14.1443 3.52928 13.6951C3.51276 13.6878 3.50772 13.6997 3.51965 13.7094ZM8.50926 14.0819C10.3133 14.0819 12.2945 13.5919 13.4796 12.6192C13.8044 12.354 14.1128 12.0003 14.3899 11.5272C14.5575 11.2319 14.7043 10.9253 14.8294 10.6096C14.8368 10.5954 14.8271 10.588 14.8152 10.605C13.7136 12.2274 10.5212 13.2386 7.22825 13.2386C4.89839 13.2386 2.39142 12.493 1.41185 11.0712C1.40222 11.0592 1.39258 11.0638 1.39763 11.0785C2.31067 13.0211 5.08466 14.0819 8.50926 14.0819ZM6.54002 10.861C2.79059 10.861 1.02232 9.11432 0.69977 7.92187C0.697476 7.90535 0.685547 7.90764 0.685547 7.92416C0.685547 8.32562 0.726381 8.84408 0.795662 9.1859C0.826862 9.35337 0.96313 9.61627 1.16363 9.82641C2.07163 10.7729 4.33725 12.0989 8.25599 12.0989C13.5994 12.0989 14.8203 10.3187 15.0689 9.73327C15.2483 9.31529 15.3392 8.56008 15.3392 7.92416C15.3392 7.77137 15.3369 7.64704 15.3295 7.52728C15.3295 7.50572 15.3199 7.50572 15.3153 7.52499C15.0478 8.95649 10.4831 10.861 6.54002 10.861ZM1.39304 4.78174C1.17786 5.20706 0.938813 5.92877 0.867238 6.29904C0.836038 6.45916 0.85072 6.53579 0.905319 6.65508C1.3545 7.60849 3.62976 9.13543 8.93229 9.13543C12.1678 9.13543 14.6817 8.33985 15.0882 6.88907C15.1621 6.62158 15.1671 6.33941 15.0717 5.95951C14.9643 5.53649 14.7634 5.04188 14.5913 4.69319C14.5867 4.68126 14.5771 4.68355 14.5794 4.69777C14.6413 6.60002 9.3365 7.82597 6.66023 7.82597C3.75915 7.82597 1.34073 6.6716 1.34073 5.21165C1.34073 5.07079 1.36964 4.93223 1.40543 4.78632C1.41002 4.7721 1.39763 4.76981 1.39304 4.78174ZM12.8515 2.44683C12.8842 2.49642 12.9009 2.5549 12.8992 2.6143C12.8992 3.42915 10.4069 4.86754 6.4423 4.86754C3.52928 4.86754 2.98467 3.78749 2.98467 3.10156C2.98467 2.85563 3.07781 2.60191 3.28565 2.34864C3.29758 2.33212 3.28794 2.32708 3.27372 2.33901C2.89506 2.66006 2.54995 3.01871 2.24368 3.40942C2.09778 3.59341 2.00693 3.75583 2.00693 3.85401C2.00693 5.27817 5.57697 6.31051 8.91806 6.31051C12.4762 6.31051 14.0632 5.14925 14.0632 4.12884C14.0632 3.76546 13.9224 3.55074 13.559 3.13734C13.3222 2.86986 13.1002 2.65238 12.8634 2.43719C12.8515 2.42756 12.8441 2.4349 12.8515 2.44683ZM11.7618 1.63197C10.6293 0.95279 9.33287 0.595833 8.01236 0.59964C6.62858 0.59964 5.31453 0.986879 4.21292 1.66317C3.88303 1.86643 3.69675 2.02885 3.69675 2.23898C3.69675 2.85793 5.14018 3.52 7.70174 3.52C10.2372 3.52 12.2013 2.79369 12.2013 2.09354C12.2013 1.92607 12.0554 1.80862 11.7618 1.63197Z" fill="#1E1E1E"/>
</svg>
