<svg width="333" height="965" viewBox="0 0 333 965" fill="none" xmlns="http://www.w3.org/2000/svg">
<path d="M50.8889 933.5H2V650.5H262.5V494.257H330.5V254H22.7778V31.5H47" stroke="black" stroke-width="4" stroke-linecap="round" stroke-linejoin="round" stroke-dasharray="32 32"/>
<g filter="url(#filter0_dii_231_305)">
<mask id="path-2-inside-1_231_305" fill="white">
<path d="M59.5 929.5C59.5 939.717 51.2173 948 41 948C30.7827 948 22.5 939.717 22.5 929.5C22.5 919.283 30.7827 911 41 911C51.2173 911 59.5 919.283 59.5 929.5ZM40.815 929.5C40.815 929.602 40.8978 929.685 41 929.685C41.1022 929.685 41.185 929.602 41.185 929.5C41.185 929.398 41.1022 929.315 41 929.315C40.8978 929.315 40.815 929.398 40.815 929.5Z"/>
</mask>
<path d="M59.5 929.5C59.5 939.717 51.2173 948 41 948C30.7827 948 22.5 939.717 22.5 929.5C22.5 919.283 30.7827 911 41 911C51.2173 911 59.5 919.283 59.5 929.5ZM40.815 929.5C40.815 929.602 40.8978 929.685 41 929.685C41.1022 929.685 41.185 929.602 41.185 929.5C41.185 929.398 41.1022 929.315 41 929.315C40.8978 929.315 40.815 929.398 40.815 929.5Z" fill="#1D4ED8"/>
<path d="M59.5 929.5C59.5 939.717 51.2173 948 41 948C30.7827 948 22.5 939.717 22.5 929.5C22.5 919.283 30.7827 911 41 911C51.2173 911 59.5 919.283 59.5 929.5ZM40.815 929.5C40.815 929.602 40.8978 929.685 41 929.685C41.1022 929.685 41.185 929.602 41.185 929.5C41.185 929.398 41.1022 929.315 41 929.315C40.8978 929.315 40.815 929.398 40.815 929.5Z" stroke="white" stroke-width="0.6" mask="url(#path-2-inside-1_231_305)"/>
</g>
<g filter="url(#filter1_dii_231_305)">
<mask id="path-3-inside-2_231_305" fill="white">
<path d="M288 497C288 507.217 279.27 515.5 268.5 515.5C257.73 515.5 249 507.217 249 497C249 486.783 257.73 478.5 268.5 478.5C279.27 478.5 288 486.783 288 497ZM268.305 497C268.305 497.102 268.392 497.185 268.5 497.185C268.608 497.185 268.695 497.102 268.695 497C268.695 496.898 268.608 496.815 268.5 496.815C268.392 496.815 268.305 496.898 268.305 497Z"/>
</mask>
<path d="M288 497C288 507.217 279.27 515.5 268.5 515.5C257.73 515.5 249 507.217 249 497C249 486.783 257.73 478.5 268.5 478.5C279.27 478.5 288 486.783 288 497ZM268.305 497C268.305 497.102 268.392 497.185 268.5 497.185C268.608 497.185 268.695 497.102 268.695 497C268.695 496.898 268.608 496.815 268.5 496.815C268.392 496.815 268.305 496.898 268.305 497Z" fill="#1D4ED8"/>
<path d="M288 497C288 507.217 279.27 515.5 268.5 515.5C257.73 515.5 249 507.217 249 497C249 486.783 257.73 478.5 268.5 478.5C279.27 478.5 288 486.783 288 497ZM268.305 497C268.305 497.102 268.392 497.185 268.5 497.185C268.608 497.185 268.695 497.102 268.695 497C268.695 496.898 268.608 496.815 268.5 496.815C268.392 496.815 268.305 496.898 268.305 497Z" stroke="white" stroke-width="0.6" mask="url(#path-3-inside-2_231_305)"/>
</g>
<g filter="url(#filter2_dii_231_305)">
<mask id="path-4-inside-3_231_305" fill="white">
<path d="M61.5 31.5C61.5 41.7173 53.2173 50 43 50C32.7827 50 24.5 41.7173 24.5 31.5C24.5 21.2827 32.7827 13 43 13C53.2173 13 61.5 21.2827 61.5 31.5ZM42.815 31.5C42.815 31.6022 42.8978 31.685 43 31.685C43.1022 31.685 43.185 31.6022 43.185 31.5C43.185 31.3978 43.1022 31.315 43 31.315C42.8978 31.315 42.815 31.3978 42.815 31.5Z"/>
</mask>
<path d="M61.5 31.5C61.5 41.7173 53.2173 50 43 50C32.7827 50 24.5 41.7173 24.5 31.5C24.5 21.2827 32.7827 13 43 13C53.2173 13 61.5 21.2827 61.5 31.5ZM42.815 31.5C42.815 31.6022 42.8978 31.685 43 31.685C43.1022 31.685 43.185 31.6022 43.185 31.5C43.185 31.3978 43.1022 31.315 43 31.315C42.8978 31.315 42.815 31.3978 42.815 31.5Z" fill="#1D4ED8"/>
<path d="M61.5 31.5C61.5 41.7173 53.2173 50 43 50C32.7827 50 24.5 41.7173 24.5 31.5C24.5 21.2827 32.7827 13 43 13C53.2173 13 61.5 21.2827 61.5 31.5ZM42.815 31.5C42.815 31.6022 42.8978 31.685 43 31.685C43.1022 31.685 43.185 31.6022 43.185 31.5C43.185 31.3978 43.1022 31.315 43 31.315C42.8978 31.315 42.815 31.3978 42.815 31.5Z" stroke="white" stroke-width="0.6" mask="url(#path-4-inside-3_231_305)"/>
</g>
<defs>
<filter id="filter0_dii_231_305" x="8.5" y="898" width="67" height="67" filterUnits="userSpaceOnUse" color-interpolation-filters="sRGB">
<feFlood flood-opacity="0" result="BackgroundImageFix"/>
<feColorMatrix in="SourceAlpha" type="matrix" values="0 0 0 0 0 0 0 0 0 0 0 0 0 0 0 0 0 0 127 0" result="hardAlpha"/>
<feOffset dx="1" dy="2"/>
<feGaussianBlur stdDeviation="7.5"/>
<feComposite in2="hardAlpha" operator="out"/>
<feColorMatrix type="matrix" values="0 0 0 0 0 0 0 0 0 0 0 0 0 0 0 0 0 0 0.4 0"/>
<feBlend mode="normal" in2="BackgroundImageFix" result="effect1_dropShadow_231_305"/>
<feBlend mode="normal" in="SourceGraphic" in2="effect1_dropShadow_231_305" result="shape"/>
<feColorMatrix in="SourceAlpha" type="matrix" values="0 0 0 0 0 0 0 0 0 0 0 0 0 0 0 0 0 0 127 0" result="hardAlpha"/>
<feOffset dx="-1" dy="-1"/>
<feGaussianBlur stdDeviation="2"/>
<feComposite in2="hardAlpha" operator="arithmetic" k2="-1" k3="1"/>
<feColorMatrix type="matrix" values="0 0 0 0 0 0 0 0 0 0 0 0 0 0 0 0 0 0 0.25 0"/>
<feBlend mode="normal" in2="shape" result="effect2_innerShadow_231_305"/>
<feColorMatrix in="SourceAlpha" type="matrix" values="0 0 0 0 0 0 0 0 0 0 0 0 0 0 0 0 0 0 127 0" result="hardAlpha"/>
<feOffset dx="1" dy="1"/>
<feGaussianBlur stdDeviation="2"/>
<feComposite in2="hardAlpha" operator="arithmetic" k2="-1" k3="1"/>
<feColorMatrix type="matrix" values="0 0 0 0 0 0 0 0 0 0 0 0 0 0 0 0 0 0 0.14 0"/>
<feBlend mode="normal" in2="effect2_innerShadow_231_305" result="effect3_innerShadow_231_305"/>
</filter>
<filter id="filter1_dii_231_305" x="235" y="465.5" width="69" height="67" filterUnits="userSpaceOnUse" color-interpolation-filters="sRGB">
<feFlood flood-opacity="0" result="BackgroundImageFix"/>
<feColorMatrix in="SourceAlpha" type="matrix" values="0 0 0 0 0 0 0 0 0 0 0 0 0 0 0 0 0 0 127 0" result="hardAlpha"/>
<feOffset dx="1" dy="2"/>
<feGaussianBlur stdDeviation="7.5"/>
<feComposite in2="hardAlpha" operator="out"/>
<feColorMatrix type="matrix" values="0 0 0 0 0 0 0 0 0 0 0 0 0 0 0 0 0 0 0.4 0"/>
<feBlend mode="normal" in2="BackgroundImageFix" result="effect1_dropShadow_231_305"/>
<feBlend mode="normal" in="SourceGraphic" in2="effect1_dropShadow_231_305" result="shape"/>
<feColorMatrix in="SourceAlpha" type="matrix" values="0 0 0 0 0 0 0 0 0 0 0 0 0 0 0 0 0 0 127 0" result="hardAlpha"/>
<feOffset dx="-1" dy="-1"/>
<feGaussianBlur stdDeviation="2"/>
<feComposite in2="hardAlpha" operator="arithmetic" k2="-1" k3="1"/>
<feColorMatrix type="matrix" values="0 0 0 0 0 0 0 0 0 0 0 0 0 0 0 0 0 0 0.25 0"/>
<feBlend mode="normal" in2="shape" result="effect2_innerShadow_231_305"/>
<feColorMatrix in="SourceAlpha" type="matrix" values="0 0 0 0 0 0 0 0 0 0 0 0 0 0 0 0 0 0 127 0" result="hardAlpha"/>
<feOffset dx="1" dy="1"/>
<feGaussianBlur stdDeviation="2"/>
<feComposite in2="hardAlpha" operator="arithmetic" k2="-1" k3="1"/>
<feColorMatrix type="matrix" values="0 0 0 0 0 0 0 0 0 0 0 0 0 0 0 0 0 0 0.14 0"/>
<feBlend mode="normal" in2="effect2_innerShadow_231_305" result="effect3_innerShadow_231_305"/>
</filter>
<filter id="filter2_dii_231_305" x="10.5" y="0" width="67" height="67" filterUnits="userSpaceOnUse" color-interpolation-filters="sRGB">
<feFlood flood-opacity="0" result="BackgroundImageFix"/>
<feColorMatrix in="SourceAlpha" type="matrix" values="0 0 0 0 0 0 0 0 0 0 0 0 0 0 0 0 0 0 127 0" result="hardAlpha"/>
<feOffset dx="1" dy="2"/>
<feGaussianBlur stdDeviation="7.5"/>
<feComposite in2="hardAlpha" operator="out"/>
<feColorMatrix type="matrix" values="0 0 0 0 0 0 0 0 0 0 0 0 0 0 0 0 0 0 0.4 0"/>
<feBlend mode="normal" in2="BackgroundImageFix" result="effect1_dropShadow_231_305"/>
<feBlend mode="normal" in="SourceGraphic" in2="effect1_dropShadow_231_305" result="shape"/>
<feColorMatrix in="SourceAlpha" type="matrix" values="0 0 0 0 0 0 0 0 0 0 0 0 0 0 0 0 0 0 127 0" result="hardAlpha"/>
<feOffset dx="-1" dy="-1"/>
<feGaussianBlur stdDeviation="2"/>
<feComposite in2="hardAlpha" operator="arithmetic" k2="-1" k3="1"/>
<feColorMatrix type="matrix" values="0 0 0 0 0 0 0 0 0 0 0 0 0 0 0 0 0 0 0.25 0"/>
<feBlend mode="normal" in2="shape" result="effect2_innerShadow_231_305"/>
<feColorMatrix in="SourceAlpha" type="matrix" values="0 0 0 0 0 0 0 0 0 0 0 0 0 0 0 0 0 0 127 0" result="hardAlpha"/>
<feOffset dx="1" dy="1"/>
<feGaussianBlur stdDeviation="2"/>
<feComposite in2="hardAlpha" operator="arithmetic" k2="-1" k3="1"/>
<feColorMatrix type="matrix" values="0 0 0 0 0 0 0 0 0 0 0 0 0 0 0 0 0 0 0.14 0"/>
<feBlend mode="normal" in2="effect2_innerShadow_231_305" result="effect3_innerShadow_231_305"/>
</filter>
</defs>
</svg>
