<svg width="282" height="165" viewBox="0 0 282 165" fill="none" xmlns="http://www.w3.org/2000/svg">
<g clip-path="url(#clip0_652_12349)">
<path d="M408.524 13.0332C367.54 5.77623 322.392 5.1165 274.176 7.97532C201.632 12.3735 134.348 27.9871 84.817 53.0567C40.1073 75.4874 15.3416 102.756 16.8757 127.606C17.7524 141.46 25.4232 153.775 41.4223 165.87C14.6841 148.717 0 129.145 0 110.013C0 83.624 27.834 56.5752 76.7079 35.6839C130.623 12.8133 202.509 0.0585938 279.436 0.0585938C325.241 0.0585938 369.074 4.45678 408.524 13.0332Z" fill="black"/>
<path d="M134.183 90.2516C134.183 75.2978 145.36 63.6426 160.702 63.6426C170.564 63.6426 179.112 68.9204 183.056 76.6172L171.879 83.2145C169.907 79.0362 165.523 76.3973 160.482 76.3973C152.812 76.3973 147.113 82.1149 147.113 90.2516C147.113 98.1683 152.812 103.886 160.482 103.886C165.742 103.886 169.907 101.467 172.098 97.2887L183.276 103.666C178.892 111.583 170.345 116.641 160.702 116.641C145.579 116.861 134.183 105.205 134.183 90.2516Z" fill="black"/>
<path d="M240.256 64.9622V115.321H227.325V109.384C223.819 114.002 218.34 116.641 210.888 116.641C197.519 116.641 186.561 104.986 186.561 90.0319C186.561 75.078 197.519 63.4229 210.888 63.4229C218.12 63.4229 223.599 66.2817 227.325 70.6799V64.9622H240.256ZM226.668 90.2518C226.668 81.8952 220.75 76.1776 212.641 76.1776C204.751 76.1776 198.834 81.8952 198.834 90.2518C198.834 98.6083 204.751 104.326 212.641 104.326C220.75 104.326 226.668 98.6083 226.668 90.2518Z" fill="black"/>
<path d="M275.98 64.082V78.596C269.186 77.7164 260.639 80.7951 260.639 91.3508V115.321H247.708V64.9617H260.858V73.758C263.488 66.9409 269.625 64.082 275.98 64.082Z" fill="black"/>
<path d="M321.128 100.587C321.128 111.363 311.704 116.641 300.965 116.641C290.883 116.641 283.431 112.463 279.925 104.766L291.102 98.3884C292.417 102.567 295.924 104.986 300.965 104.986C305.129 104.986 307.978 103.666 307.978 100.587C307.978 93.3305 282.116 97.2889 282.116 79.4762C282.116 69.1405 290.883 63.4229 301.184 63.4229C309.293 63.4229 316.306 67.1613 320.251 74.1984L309.293 80.136C307.759 76.8373 304.91 75.078 301.184 75.078C297.896 75.078 295.266 76.3975 295.266 79.2563C295.266 86.7332 321.128 82.1151 321.128 100.587Z" fill="black"/>
</g>
<defs>
<clipPath id="clip0_652_12349">
<rect width="521.818" height="164" fill="white" transform="translate(0 0.0585938)"/>
</clipPath>
</defs>
</svg>
